# xmcd
#
# Track frame offsets:
#	150
#	17290
#	43914
#	71032
#	86629
#	128744
#	154456
#	170608
#	188481
#	215889
#
# Disc length: 3110 seconds
#
# Revision: 1
# Processed by: cddbd v1.4PL0 Copyright (c) Steve Scherf et al.
# Submitted via: audiograbber 1.81.03
#
DISCID=8b0c240a
DTITLE=Killin' Floor So Blue - So Blue
DYEAR=1995
DGENRE=Blues
TTITLE0=Jump Little Children
TTITLE1=Mama Please
TTITLE2=What Would You Do
TTITLE3=Nobody Comes to My Parties
TTITLE4=Married Woman Blues
TTITLE5=Shugie Shugie Baby
TTITLE6=Happy Happy Birthday
TTITLE7=I Get Weak
TTITLE8=Worries
TTITLE9=Goin' Down South
EXTD=
EXTT0=
EXTT1=
EXTT2=
EXTT3=
EXTT4=
EXTT5=
EXTT6=
EXTT7=
EXTT8=
EXTT9=
PLAYORDER=
